<svg xmlns="http://www.w3.org/2000/svg" width="178" height="21" viewBox="0 0 178 21"><g fill="#FFF"><path d="M11.09 15.14c0-.7-.25-1.25-.75-1.64-.5-.39-1.37-.8-2.62-1.22-1.25-.42-2.27-.82-3.06-1.22C2.08 9.8.79 8.06.79 5.84c0-1.1.32-2.08.96-2.92.64-.84 1.55-1.5 2.73-1.97s2.5-.7 3.96-.7c1.43 0 2.71.26 3.85.77 1.13.51 2.02 1.24 2.65 2.18s.94 2.02.94 3.23H11.1c0-.81-.25-1.44-.75-1.89-.49-.44-1.17-.67-2.01-.67-.86 0-1.53.19-2.03.57-.5.38-.75.86-.75 1.44 0 .51.27.97.82 1.39.55.42 1.51.84 2.88 1.29 1.38.44 2.51.92 3.39 1.43 2.15 1.24 3.23 2.95 3.23 5.13 0 1.74-.66 3.11-1.97 4.1-1.31.99-3.11 1.49-5.4 1.49-1.61 0-3.07-.29-4.38-.87-1.31-.58-2.29-1.37-2.95-2.38-.66-1.01-.99-2.17-.99-3.48H5c0 1.07.28 1.85.83 2.36.55.51 1.45.76 2.69.76.79 0 1.42-.17 1.88-.51.45-.35.69-.83.69-1.45zM29.65 16.71h-6.58l-1.15 3.72H16.8L24.1.52h4.51l7.36 19.91h-5.15l-1.17-3.72zm-5.43-3.7h4.28l-2.15-6.9-2.13 6.9zM43.72.52l4.44 13.85L52.59.52h6.32v19.91H54.1v-4.65l.46-9.52-4.81 14.16h-3.17L41.75 6.25l.46 9.53v4.65h-4.8V.52h6.31zM85.57 20.43H80.8v-8.31h-7.07v8.31h-4.8V.52h4.8v7.9h7.07V.52h4.77v19.91zM100.95 11.98H93.4v4.76h8.91v3.69H88.6V.52h13.74v3.71H93.4v4.2h7.55v3.55zM111.67 13.39h-2.6v7.04h-4.8V.52h7.83c2.36 0 4.21.52 5.54 1.57s2 2.53 2 4.44c0 1.38-.28 2.53-.84 3.44-.56.91-1.44 1.65-2.63 2.21l4.16 8.04v.21h-5.14l-3.52-7.04zm-2.6-3.69h3.04c.91 0 1.6-.24 2.06-.72.46-.48.69-1.15.69-2.01s-.23-1.53-.7-2.02-1.15-.73-2.05-.73h-3.04V9.7zM128.84.52l4.44 13.85L137.71.52h6.32v19.91h-4.81v-4.65l.46-9.52-4.81 14.16h-3.17l-4.83-14.18.46 9.53v4.65h-4.8V.52h6.31zM159.43 11.98h-7.55v4.76h8.91v3.69h-13.71V.52h13.74v3.71h-8.94v4.2h7.55v3.55zM173.01 15.14c0-.7-.25-1.25-.75-1.64-.5-.39-1.37-.8-2.62-1.22-1.25-.42-2.27-.82-3.06-1.22-2.58-1.27-3.87-3.01-3.87-5.22 0-1.1.32-2.08.96-2.92.64-.84 1.55-1.5 2.73-1.97s2.5-.7 3.96-.7c1.43 0 2.71.26 3.85.77 1.13.51 2.02 1.24 2.65 2.18s.94 2.02.94 3.23h-4.79c0-.81-.25-1.44-.75-1.89-.5-.45-1.17-.67-2.02-.67-.86 0-1.53.19-2.03.57-.5.38-.75.86-.75 1.44 0 .51.27.97.82 1.39.55.42 1.51.84 2.88 1.29 1.38.44 2.51.92 3.39 1.43 2.15 1.24 3.23 2.95 3.23 5.13 0 1.74-.66 3.11-1.97 4.1-1.31.99-3.11 1.49-5.4 1.49-1.61 0-3.07-.29-4.38-.87-1.31-.58-2.29-1.37-2.95-2.38-.66-1.01-.99-2.17-.99-3.48h4.81c0 1.07.28 1.85.83 2.36.55.51 1.45.76 2.69.76.79 0 1.42-.17 1.88-.51s.71-.83.71-1.45z"/></g></svg>