<?xml version="1.0" encoding="utf-8"?>
<!-- Generator: Adobe Illustrator 20.1.0, SVG Export Plug-In . SVG Version: 6.00 Build 0)  -->
<svg version="1.1" id="Layer_1" xmlns="http://www.w3.org/2000/svg" xmlns:xlink="http://www.w3.org/1999/xlink" x="0px" y="0px"
	 width="176.7px" height="23.6px" viewBox="0 0 176.7 23.6" enable-background="new 0 0 176.7 23.6" xml:space="preserve">
<g enable-background="new    ">
	<path d="M4,15.4c0,0.8,0.1,1.5,0.4,2.1c0.3,0.6,0.7,1.1,1.2,1.5c0.5,0.4,1.1,0.7,1.7,0.8C8,20,8.7,20.1,9.5,20.1
		c0.8,0,1.5-0.1,2.1-0.3c0.6-0.2,1-0.4,1.4-0.7s0.6-0.7,0.8-1.1c0.2-0.4,0.2-0.8,0.2-1.2c0-0.8-0.2-1.5-0.6-1.9
		c-0.4-0.4-0.8-0.7-1.2-0.8c-0.8-0.3-1.6-0.6-2.7-0.8c-1-0.3-2.3-0.6-3.7-1c-0.9-0.2-1.7-0.6-2.3-1c-0.6-0.4-1.1-0.8-1.5-1.3
		C1.7,9.5,1.5,9,1.3,8.4S1.1,7.3,1.1,6.7c0-1.1,0.2-2.1,0.7-2.9c0.4-0.8,1-1.5,1.8-2c0.7-0.5,1.6-0.9,2.5-1.2C7,0.4,8,0.3,8.9,0.3
		c1.1,0,2.2,0.1,3.2,0.4c1,0.3,1.9,0.7,2.6,1.3c0.7,0.6,1.3,1.3,1.8,2.2c0.4,0.9,0.7,1.9,0.7,3h-3.7c-0.1-1.4-0.6-2.4-1.4-3
		c-0.8-0.6-1.9-0.9-3.2-0.9c-0.4,0-0.9,0-1.3,0.1C7,3.7,6.5,3.8,6.2,4C5.8,4.2,5.5,4.5,5.2,4.9C5,5.3,4.8,5.7,4.8,6.3
		c0,0.8,0.2,1.4,0.7,1.8c0.5,0.4,1.1,0.8,1.8,1c0.1,0,0.4,0.1,0.9,0.3c0.5,0.2,1.2,0.3,1.8,0.5s1.3,0.4,2,0.5
		c0.6,0.2,1.1,0.3,1.4,0.4c0.7,0.2,1.3,0.5,1.8,0.9c0.5,0.4,1,0.8,1.3,1.3s0.6,1,0.8,1.6s0.3,1.1,0.3,1.7c0,1.2-0.2,2.3-0.7,3.1
		c-0.5,0.9-1.1,1.6-1.9,2.1c-0.8,0.5-1.7,1-2.7,1.2s-2.1,0.4-3.1,0.4c-1.2,0-2.4-0.2-3.4-0.5c-1.1-0.3-2-0.8-2.8-1.4
		c-0.8-0.6-1.4-1.4-1.9-2.4s-0.7-2.2-0.7-3.5H4z"/>
	<path d="M33.5,19.2c0,0.4,0.1,0.7,0.2,0.9c0.1,0.2,0.3,0.3,0.6,0.3c0.1,0,0.2,0,0.4,0c0.1,0,0.3,0,0.5-0.1v2.4
		c-0.1,0-0.3,0.1-0.5,0.1c-0.2,0.1-0.4,0.1-0.6,0.1c-0.2,0-0.4,0.1-0.6,0.1s-0.4,0-0.5,0c-0.7,0-1.3-0.1-1.7-0.4s-0.8-0.8-0.9-1.5
		c-0.7,0.7-1.5,1.2-2.5,1.5c-1,0.3-1.9,0.5-2.9,0.5c-0.7,0-1.4-0.1-2-0.3c-0.6-0.2-1.2-0.5-1.7-0.9s-0.9-0.9-1.2-1.4
		c-0.3-0.6-0.4-1.3-0.4-2c0-1,0.2-1.8,0.5-2.4c0.3-0.6,0.8-1.1,1.4-1.4s1.2-0.6,1.9-0.8c0.7-0.2,1.4-0.3,2.1-0.4
		c0.6-0.1,1.2-0.2,1.8-0.3s1.1-0.1,1.5-0.3c0.4-0.1,0.8-0.3,1-0.6c0.2-0.3,0.4-0.6,0.4-1.1c0-0.4-0.1-0.8-0.3-1.1
		c-0.2-0.3-0.5-0.5-0.8-0.7c-0.3-0.2-0.7-0.3-1-0.3c-0.4-0.1-0.7-0.1-1.1-0.1c-1,0-1.7,0.2-2.4,0.6c-0.6,0.4-1,1-1,1.9h-3.4
		c0.1-1,0.3-1.9,0.7-2.5c0.4-0.7,1-1.2,1.6-1.6c0.6-0.4,1.4-0.7,2.2-0.9c0.8-0.2,1.7-0.2,2.5-0.2c0.8,0,1.5,0.1,2.2,0.2
		c0.7,0.2,1.4,0.4,2,0.8c0.6,0.4,1.1,0.8,1.4,1.4c0.4,0.6,0.5,1.3,0.5,2.1V19.2z M30.1,14.7c-0.5,0.3-1.2,0.6-1.9,0.6
		c-0.8,0.1-1.5,0.2-2.3,0.3c-0.4,0.1-0.7,0.1-1,0.3c-0.3,0.1-0.6,0.3-0.9,0.5c-0.3,0.2-0.5,0.4-0.6,0.8c-0.1,0.3-0.2,0.7-0.2,1.1
		c0,0.4,0.1,0.7,0.3,1c0.2,0.3,0.5,0.5,0.8,0.6c0.3,0.2,0.6,0.3,1,0.3c0.4,0.1,0.7,0.1,1,0.1c0.4,0,0.8-0.1,1.2-0.2
		c0.4-0.1,0.9-0.3,1.2-0.5c0.4-0.2,0.7-0.6,1-0.9c0.3-0.4,0.4-0.8,0.4-1.4V14.7z"/>
	<path d="M37.2,6.9h3.2v2.2h0.1c0.3-0.4,0.5-0.7,0.8-1.1c0.3-0.3,0.6-0.6,1-0.8c0.4-0.2,0.8-0.4,1.3-0.5c0.5-0.1,1-0.2,1.6-0.2
		c0.9,0,1.8,0.2,2.6,0.6c0.8,0.4,1.4,1.1,1.7,2c0.6-0.8,1.2-1.5,2-1.9c0.8-0.5,1.7-0.7,2.8-0.7c1.6,0,2.9,0.4,3.8,1.2
		c0.9,0.8,1.4,2.2,1.4,4.1v10.9h-3.4v-9.2c0-0.6,0-1.2-0.1-1.7c0-0.5-0.2-1-0.3-1.3S55.4,9.7,55,9.5c-0.4-0.2-0.9-0.3-1.6-0.3
		c-1.2,0-2,0.4-2.5,1.1c-0.5,0.7-0.8,1.8-0.8,3.1v9.3h-3.4V12.5c0-1.1-0.2-1.9-0.6-2.5C45.7,9.5,45,9.2,44,9.2
		c-0.4,0-0.9,0.1-1.3,0.3s-0.8,0.4-1.1,0.8c-0.3,0.3-0.6,0.8-0.7,1.3c-0.2,0.5-0.3,1.1-0.3,1.7v9.4h-3.4V6.9z"/>
	<path d="M72,0.8h3.7v8.7h9.7V0.8h3.7v21.8h-3.7v-9.9h-9.7v9.9H72V0.8z"/>
	<path d="M95.9,15.7c0,0.6,0.1,1.2,0.3,1.8s0.4,1.1,0.8,1.5c0.3,0.4,0.8,0.8,1.3,1c0.5,0.3,1.1,0.4,1.9,0.4c1,0,1.8-0.2,2.4-0.7
		c0.6-0.4,1.1-1.1,1.4-2h3.2c-0.2,0.9-0.5,1.6-0.9,2.3c-0.4,0.7-1,1.2-1.6,1.7s-1.3,0.8-2.1,1c-0.8,0.2-1.6,0.4-2.4,0.4
		c-1.2,0-2.3-0.2-3.2-0.6c-0.9-0.4-1.7-1-2.4-1.7c-0.7-0.7-1.1-1.6-1.5-2.6c-0.3-1-0.5-2.1-0.5-3.4c0-1.1,0.2-2.2,0.5-3.2
		c0.3-1,0.8-1.9,1.5-2.7c0.6-0.8,1.4-1.4,2.4-1.8s2-0.7,3.1-0.7c1.2,0,2.3,0.3,3.3,0.8c1,0.5,1.8,1.2,2.4,2.1c0.6,0.9,1.1,1.8,1.4,3
		c0.3,1.1,0.4,2.3,0.2,3.4H95.9z M103.9,13.4c0-0.6-0.2-1.1-0.3-1.6c-0.2-0.5-0.4-1-0.8-1.3c-0.3-0.4-0.7-0.7-1.2-0.9
		c-0.5-0.2-1-0.4-1.6-0.4c-0.6,0-1.1,0.1-1.6,0.3c-0.5,0.2-0.9,0.5-1.3,0.9c-0.3,0.4-0.6,0.8-0.8,1.3c-0.2,0.5-0.3,1.1-0.3,1.7
		H103.9z"/>
	<path d="M109.9,6.9h3.2v3.1h0.1c0.1-0.4,0.3-0.8,0.6-1.3c0.3-0.4,0.6-0.8,1-1.1c0.4-0.3,0.9-0.6,1.4-0.8c0.5-0.2,1-0.3,1.5-0.3
		c0.4,0,0.7,0,0.8,0c0.2,0,0.3,0,0.5,0.1v3.4c-0.2,0-0.5-0.1-0.7-0.1c-0.2,0-0.5,0-0.7,0c-0.6,0-1.1,0.1-1.6,0.4
		c-0.5,0.2-1,0.6-1.3,1c-0.4,0.5-0.7,1-0.9,1.7s-0.3,1.4-0.3,2.3v7.5h-3.4V6.9z"/>
	<path d="M120.4,6.9h3.2v2.2h0.1c0.3-0.4,0.5-0.7,0.8-1.1s0.6-0.6,1-0.8c0.4-0.2,0.8-0.4,1.3-0.5s1-0.2,1.6-0.2
		c0.9,0,1.8,0.2,2.6,0.6s1.4,1.1,1.7,2c0.6-0.8,1.2-1.5,2-1.9c0.8-0.5,1.7-0.7,2.8-0.7c1.6,0,2.9,0.4,3.8,1.2s1.4,2.2,1.4,4.1v10.9
		h-3.4v-9.2c0-0.6,0-1.2-0.1-1.7c0-0.5-0.2-1-0.3-1.3s-0.5-0.7-0.9-0.9c-0.4-0.2-0.9-0.3-1.6-0.3c-1.2,0-2,0.4-2.5,1.1
		s-0.8,1.8-0.8,3.1v9.3H130V12.5c0-1.1-0.2-1.9-0.6-2.5c-0.4-0.6-1.1-0.8-2.1-0.8c-0.4,0-0.9,0.1-1.3,0.3s-0.8,0.4-1.1,0.8
		c-0.3,0.3-0.6,0.8-0.7,1.3c-0.2,0.5-0.3,1.1-0.3,1.7v9.4h-3.4V6.9z"/>
	<path d="M149.2,15.7c0,0.6,0.1,1.2,0.3,1.8s0.4,1.1,0.8,1.5c0.3,0.4,0.8,0.8,1.3,1c0.5,0.3,1.1,0.4,1.9,0.4c1,0,1.8-0.2,2.4-0.7
		c0.6-0.4,1.1-1.1,1.4-2h3.2c-0.2,0.9-0.5,1.6-0.9,2.3c-0.4,0.7-1,1.2-1.6,1.7s-1.3,0.8-2.1,1c-0.8,0.2-1.6,0.4-2.4,0.4
		c-1.2,0-2.3-0.2-3.2-0.6c-0.9-0.4-1.7-1-2.4-1.7c-0.7-0.7-1.1-1.6-1.5-2.6c-0.3-1-0.5-2.1-0.5-3.4c0-1.1,0.2-2.2,0.5-3.2
		c0.3-1,0.8-1.9,1.5-2.7c0.6-0.8,1.4-1.4,2.4-1.8s2-0.7,3.1-0.7c1.2,0,2.3,0.3,3.3,0.8c1,0.5,1.8,1.2,2.4,2.1c0.6,0.9,1.1,1.8,1.4,3
		c0.3,1.1,0.4,2.3,0.2,3.4H149.2z M157.2,13.4c0-0.6-0.2-1.1-0.3-1.6c-0.2-0.5-0.4-1-0.8-1.3c-0.3-0.4-0.7-0.7-1.2-0.9
		c-0.5-0.2-1-0.4-1.6-0.4c-0.6,0-1.1,0.1-1.6,0.3c-0.5,0.2-0.9,0.5-1.3,0.9c-0.3,0.4-0.6,0.8-0.8,1.3c-0.2,0.5-0.3,1.1-0.3,1.7
		H157.2z"/>
	<path d="M165.8,17.6c0.1,1,0.5,1.7,1.1,2.1c0.7,0.4,1.4,0.6,2.4,0.6c0.3,0,0.7,0,1.1-0.1s0.8-0.1,1.2-0.3s0.7-0.4,0.9-0.6
		s0.3-0.6,0.3-1.1c0-0.4-0.2-0.8-0.5-1.1c-0.3-0.3-0.7-0.5-1.2-0.7c-0.5-0.2-1-0.3-1.6-0.4c-0.6-0.1-1.2-0.3-1.8-0.4
		c-0.6-0.1-1.3-0.3-1.8-0.5c-0.6-0.2-1.1-0.5-1.6-0.8s-0.8-0.8-1.1-1.3c-0.3-0.5-0.4-1.2-0.4-2c0-0.9,0.2-1.6,0.6-2.2
		c0.4-0.6,0.9-1.1,1.6-1.4c0.6-0.4,1.3-0.6,2.1-0.7c0.8-0.1,1.5-0.2,2.2-0.2c0.8,0,1.6,0.1,2.3,0.3s1.4,0.5,2,0.8
		c0.6,0.4,1.1,0.9,1.5,1.5c0.4,0.6,0.6,1.4,0.7,2.2h-3.6c-0.2-0.8-0.5-1.4-1.1-1.7c-0.6-0.3-1.3-0.4-2-0.4c-0.2,0-0.5,0-0.9,0.1
		s-0.6,0.1-0.9,0.2c-0.3,0.1-0.5,0.3-0.7,0.5c-0.2,0.2-0.3,0.5-0.3,0.8c0,0.4,0.1,0.8,0.4,1c0.3,0.3,0.7,0.5,1.1,0.7
		c0.5,0.2,1,0.3,1.6,0.4c0.6,0.1,1.2,0.3,1.9,0.4c0.6,0.1,1.2,0.3,1.8,0.5c0.6,0.2,1.1,0.5,1.6,0.8c0.5,0.3,0.8,0.8,1.1,1.3
		c0.3,0.5,0.4,1.2,0.4,2c0,0.9-0.2,1.7-0.6,2.4c-0.4,0.7-1,1.2-1.6,1.6c-0.7,0.4-1.4,0.7-2.2,0.9c-0.8,0.2-1.6,0.3-2.4,0.3
		c-1,0-1.9-0.1-2.7-0.3s-1.5-0.6-2.2-1c-0.6-0.5-1.1-1-1.4-1.7c-0.3-0.7-0.5-1.5-0.6-2.4H165.8z"/>
</g>
<g>
</g>
</svg>
