<svg xmlns="http://www.w3.org/2000/svg" width="155.81" height="16.22" viewBox="0 0 155.81 16.22"><g fill="#23211E"><path d="M11.41 4.39c-.1.1-.22.14-.35.14h-.9c-.18 0-.31-.03-.4-.1-.09-.06-.18-.19-.29-.38-.23-.45-.64-.9-1.22-1.34-.58-.44-1.35-.66-2.3-.66-.88 0-1.62.2-2.23.59-.61.4-.91.96-.91 1.7 0 .5.15.91.45 1.22s.76.59 1.36.81c.61.23 1.53.5 2.76.83 1.67.44 2.86.98 3.55 1.62.7.64 1.04 1.51 1.04 2.61 0 .88-.25 1.66-.74 2.33-.49.67-1.18 1.2-2.08 1.58s-1.93.57-3.1.57c-1.09 0-2.08-.21-2.97-.62-.9-.41-1.6-.94-2.11-1.57-.51-.64-.78-1.27-.81-1.9 0-.13.05-.25.14-.34.1-.1.21-.14.34-.14h.9c.16 0 .29.03.4.1.1.07.2.19.29.38.23.53.66 1.01 1.29 1.45s1.47.66 2.54.66 1.98-.23 2.72-.69c.74-.46 1.11-1.07 1.11-1.81 0-.48-.19-.89-.58-1.22-.39-.33-.92-.61-1.6-.84-.67-.23-1.66-.52-2.97-.85-1.42-.37-2.45-.9-3.08-1.6-.63-.7-.95-1.56-.95-2.58 0-.76.2-1.47.59-2.11s1-1.17 1.79-1.57S4.84.07 5.95.07c1.11 0 2.09.22 2.93.65.84.43 1.48.96 1.94 1.6.45.63.7 1.21.73 1.74a.4.4 0 0 1-.14.33zM18.49 12.21l-1.14 2.93c-.13.37-.42.55-.86.55h-.81c-.13 0-.25-.05-.34-.14-.1-.1-.14-.21-.14-.34 0-.07.03-.18.09-.31l5.39-13.88c.19-.48.52-.73.99-.73h1.32c.47 0 .8.24.99.73l5.37 13.88c.06.13.09.23.09.31 0 .13-.05.25-.14.34-.1.1-.21.14-.34.14h-.81c-.44 0-.73-.18-.86-.55l-1.14-2.93h-7.66zm6.87-1.98l-3.04-7.85-3.06 7.85h6.1zM45.07.99c.23-.47.56-.7.97-.7h.84c.16 0 .3.06.42.18s.18.26.18.42V15.1c0 .16-.06.3-.18.42s-.26.18-.42.18h-.9c-.16 0-.3-.06-.42-.18a.576.576 0 0 1-.18-.42V4.67l-3.43 6.62c-.12.23-.25.41-.39.53-.14.12-.31.18-.52.18h-.84c-.21 0-.38-.06-.52-.18s-.27-.29-.38-.53l-3.43-6.62V15.1c0 .16-.06.3-.18.42s-.26.18-.42.18h-.9c-.16 0-.3-.06-.42-.18a.576.576 0 0 1-.18-.42V.88c0-.16.06-.3.18-.42s.26-.18.42-.18h.84c.41 0 .73.23.97.7l4.44 8.6L45.07.99zM72.55.46c.12.12.18.26.18.42v14.21c0 .16-.06.3-.18.42s-.26.18-.42.18h-.9c-.16 0-.3-.06-.42-.18a.576.576 0 0 1-.18-.42v-6.2h-7.74v6.2c0 .16-.06.3-.18.42s-.26.18-.42.18h-.9c-.16 0-.3-.06-.42-.17a.551.551 0 0 1-.18-.43V.88c0-.16.06-.3.18-.42s.26-.18.42-.18h.9c.16 0 .3.06.42.18s.18.26.18.42v6.03h7.74V.88c0-.16.06-.3.18-.42s.26-.18.42-.18h.9c.16.01.3.07.42.18zM80.69 13.71h7.39c.16 0 .3.06.42.18s.18.26.18.42v.79c0 .16-.06.3-.18.42s-.26.18-.42.18h-8.89c-.16 0-.3-.06-.42-.18a.576.576 0 0 1-.18-.42V.88c0-.16.06-.3.18-.42s.26-.18.42-.18h8.71c.16 0 .3.06.42.18s.18.26.18.42v.79c0 .16-.06.3-.18.42s-.26.18-.42.18h-7.22v4.64h6.73c.16 0 .3.06.42.18s.18.26.18.42v.79c0 .16-.06.3-.18.42s-.26.18-.42.18h-6.73v4.81zM103.44 1.42c1 .76 1.5 1.9 1.5 3.42 0 1.14-.29 2.08-.86 2.79s-1.34 1.23-2.31 1.54l3.32 5.79c.04.09.07.17.07.24 0 .13-.05.25-.14.34-.1.1-.21.14-.34.14h-.95c-.41 0-.73-.2-.95-.59l-3.19-5.61H95.8v5.61c0 .16-.06.3-.18.42s-.26.18-.42.18h-.9c-.16 0-.3-.06-.42-.18a.576.576 0 0 1-.18-.42V.88c0-.16.06-.3.18-.42s.26-.18.42-.18h5.32c1.55.01 2.82.39 3.82 1.14zM99.52 7.5c2.21 0 3.32-.89 3.32-2.66 0-.91-.28-1.57-.84-1.97-.56-.4-1.39-.6-2.49-.6H95.8V7.5h3.72zM121.41.99c.23-.47.56-.7.97-.7h.84c.16 0 .3.06.42.18s.18.26.18.42V15.1c0 .16-.06.3-.18.42s-.26.18-.42.18h-.9c-.16 0-.3-.06-.42-.18a.576.576 0 0 1-.18-.42V4.67l-3.43 6.62c-.12.23-.25.41-.38.53-.14.12-.31.18-.52.18h-.84c-.21 0-.38-.06-.52-.18s-.27-.29-.38-.53l-3.43-6.62V15.1c0 .16-.06.3-.18.42s-.26.18-.42.18h-.9c-.16 0-.3-.06-.42-.18a.576.576 0 0 1-.18-.42V.88c0-.16.06-.3.18-.42s.26-.18.42-.18h.84c.41 0 .73.23.97.7l4.44 8.6 4.44-8.59zM131.77 13.71h7.39c.16 0 .3.06.42.18s.18.26.18.42v.79c0 .16-.06.3-.18.42s-.26.18-.42.18h-8.89c-.16 0-.3-.06-.42-.18a.576.576 0 0 1-.18-.42V.88c0-.16.06-.3.18-.42s.26-.18.42-.18h8.71c.16 0 .3.06.42.18s.18.26.18.42v.79c0 .16-.06.3-.18.42s-.26.18-.42.18h-7.22v4.64h6.73c.16 0 .3.06.42.18s.18.26.18.42v.79c0 .16-.06.3-.18.42s-.26.18-.42.18h-6.73v4.81zM154.98 4.39c-.1.1-.22.14-.35.14h-.9c-.18 0-.31-.03-.4-.1s-.18-.19-.29-.39c-.23-.45-.64-.9-1.22-1.34s-1.35-.66-2.3-.66c-.88 0-1.62.2-2.23.59s-.91.96-.91 1.69c0 .5.15.91.45 1.22s.76.59 1.36.81 1.53.5 2.76.82c1.67.44 2.86.98 3.55 1.62.7.64 1.04 1.51 1.04 2.61 0 .88-.25 1.66-.74 2.33-.49.67-1.18 1.2-2.08 1.58s-1.93.57-3.1.57c-1.09 0-2.08-.21-2.97-.62s-1.6-.94-2.11-1.57c-.51-.64-.79-1.27-.81-1.9 0-.13.05-.25.14-.34.1-.1.21-.14.34-.14h.9c.16 0 .29.03.4.1.1.07.2.19.29.38.23.53.66 1.01 1.29 1.45.62.44 1.47.66 2.54.66s1.98-.23 2.72-.69c.74-.46 1.11-1.07 1.11-1.81 0-.48-.19-.89-.58-1.22-.39-.33-.92-.61-1.59-.84-.67-.23-1.67-.51-2.97-.85-1.42-.37-2.45-.9-3.08-1.6-.63-.7-.95-1.56-.95-2.58a4 4 0 0 1 .59-2.11c.4-.65.99-1.17 1.78-1.56s1.75-.59 2.86-.59c1.11 0 2.09.22 2.93.65.84.43 1.48.96 1.94 1.6.45.63.7 1.21.73 1.74.01.14-.04.26-.14.35z"/></g></svg>