<svg xmlns="http://www.w3.org/2000/svg" width="295" height="36" viewBox="0 0 295 36"><g fill="#FFF"><path d="M-.2 28.4l4.5-3.5c2.5 4 6 5.9 10.3 5.9 4.6 0 7-2.3 7-5.4 0-4.1-4.4-4.9-9-5.9-5.3-1.1-11-2.5-11-9.4C1.6 4.7 6.5.3 13.4.3c5.9 0 9.7 2.1 13.1 5.9l-4.2 3.3c-2-2.7-4.4-4.6-8.8-4.6C8.9 4.9 7 7.1 7 10c0 3.5 4 4.1 8.5 5.1 5.4 1.1 11.4 2.7 11.4 10.2 0 5.3-4.3 10.2-12.1 10.2-7.3.1-11.8-2.7-15-7.1zM30.3 22.5c0-8 6-13.2 12.8-13.2 3.4 0 6.7 1.6 8.6 4V9.8h5v25.4h-5v-3.7c-2 2.6-5.3 4.2-8.7 4.2-6.6 0-12.7-5.3-12.7-13.2zm21.7-.1c0-4.7-3.5-8.6-8.3-8.6-4.7 0-8.4 3.8-8.4 8.6S39 31 43.7 31c4.8 0 8.3-3.8 8.3-8.6zM62.2 9.8h5v2.9c1.6-2.1 3.9-3.4 7.2-3.4 4 0 6.7 1.7 8.1 4.5 1.6-2.7 4.5-4.5 8.3-4.5 7 0 10.2 4.2 10.2 10.7v15.2h-5.2V20.3c0-3.9-1.7-6.5-5.7-6.5-3.6 0-6 2.4-6 7v14.4H79V19.9c0-3.9-1.7-6.2-5.6-6.2-3.8 0-6.1 2.4-6.1 7.2v14.2h-5.1V9.8zM139.6 20.4h-16.4v14.8H118V.9h5.1v14.6h16.4V.9h5.1v34.3h-5.1V20.4zM149.2 22.6c0-7.5 5.7-13.3 13.2-13.3s13 5.5 13 13v2.1h-21.3c.8 4.1 3.9 6.8 8.6 6.8 3.6 0 5.9-1.6 7.4-4.1l4.2 2.5c-2.4 3.7-6.1 6.1-11.6 6.1-8.1 0-13.5-5.8-13.5-13.1zm5.1-2.6h16c-.8-4-3.7-6.3-7.9-6.3-4 0-7.1 2.7-8.1 6.3zM180 9.8h5v4.4c1.1-3.2 3.7-4.8 6.9-4.8 1.7 0 3.3.4 4.3 1l-2 4.9c-.7-.5-1.7-.8-3.2-.8-3.6 0-5.9 1.8-5.9 6.3v14.3H180V9.8zM199.9 9.8h5v2.9c1.6-2.1 3.9-3.4 7.2-3.4 4 0 6.7 1.7 8.1 4.5 1.6-2.7 4.5-4.5 8.3-4.5 7 0 10.2 4.2 10.2 10.7v15.2h-5.2V20.3c0-3.9-1.7-6.5-5.7-6.5-3.6 0-6 2.4-6 7v14.4h-5.1V19.9c0-3.9-1.7-6.2-5.6-6.2-3.8 0-6.1 2.4-6.1 7.2v14.2h-5.1V9.8zM243.2 22.6c0-7.5 5.7-13.3 13.2-13.3s13 5.5 13 13v2.1h-21.3c.8 4.1 3.9 6.8 8.6 6.8 3.6 0 5.9-1.6 7.4-4.1l4.2 2.5c-2.4 3.7-6.1 6.1-11.6 6.1-8.1 0-13.5-5.8-13.5-13.1zm5.1-2.6h16c-.8-4-3.7-6.3-7.9-6.3-4 0-7.2 2.7-8.1 6.3zM272 30.1l4.6-2.6c1.6 2.4 3.7 3.8 6.9 3.8 3.3 0 5-1.6 5-3.6 0-2.2-3.1-2.7-6.4-3.4-4.3-.9-8.8-2.3-8.8-7.5 0-3.9 3.8-7.6 9.8-7.6 4.7 0 8 1.7 10.2 4.7l-4.4 2.5c-1.3-1.9-3.1-3-5.8-3-3.1 0-4.6 1.5-4.6 3.2 0 2 2.3 2.5 6.2 3.3 4.2.9 9 2.3 9 7.6 0 3.7-3.3 8.1-10.3 8-5.5.2-9.2-1.7-11.4-5.4z"/></g></svg>