<svg width="254" height="31" viewBox="0 0 254 31" fill="none" xmlns="http://www.w3.org/2000/svg">
<path d="M13.48 30.4C7.4 30.4 3.56 28 0.8 24.24L4.6 21.24C6.72 24.68 9.68 26.28 13.36 26.28C17.28 26.28 19.32 24.36 19.32 21.72C19.32 18.24 15.6 17.56 11.68 16.72C7.16 15.8 2.36 14.6 2.36 8.76C2.36 4.2 6.52 0.4 12.4 0.4C17.4 0.4 20.68 2.2 23.52 5.4L19.92 8.24C18.2 5.92 16.2 4.36 12.4 4.36C8.48 4.36 6.84 6.2 6.84 8.72C6.84 11.68 10.28 12.24 14.08 13.04C18.68 14 23.8 15.32 23.8 21.68C23.8 26.16 20.12 30.4 13.48 30.4ZM38.0278 30.44C32.3878 30.44 27.1878 25.96 27.1878 19.2C27.1878 12.4 32.2678 7.96 38.0678 7.96C40.9478 7.96 43.7878 9.28 45.4278 11.4V8.4H49.6678V30H45.4278V26.84C43.7478 29.08 40.9078 30.44 38.0278 30.44ZM38.5878 26.48C42.6678 26.48 45.6678 23.2 45.6678 19.16C45.6678 15.16 42.6678 11.88 38.5878 11.88C34.5878 11.88 31.4678 15.08 31.4678 19.16C31.4678 23.24 34.5878 26.48 38.5878 26.48ZM54.5503 30V8.4H58.8303V10.88C60.1503 9.08 62.1903 7.96 64.9503 7.96C68.3903 7.96 70.6703 9.4 71.8303 11.76C73.1903 9.48 75.6703 7.96 78.8703 7.96C84.7903 7.96 87.5503 11.52 87.5503 17.08V30H83.1103V17.32C83.1103 13.96 81.6303 11.76 78.2303 11.76C75.1503 11.76 73.1503 13.76 73.1503 17.72V30H68.7903V17.04C68.7903 13.76 67.3103 11.76 64.0303 11.76C60.8303 11.76 58.8703 13.84 58.8703 17.92V30H54.5503ZM120.89 30V17.4H106.89V30H102.53V0.799999H106.89V13.24H120.89V0.799999H125.21V30H120.89ZM140.816 30.44C133.936 30.44 129.336 25.56 129.336 19.28C129.336 12.92 134.216 7.96 140.576 7.96C146.936 7.96 151.656 12.6 151.656 19V20.8H133.496C134.136 24.28 136.856 26.6 140.816 26.6C143.856 26.6 145.856 25.2 147.136 23.12L150.696 25.24C148.616 28.36 145.496 30.44 140.816 30.44ZM140.576 11.76C137.136 11.76 134.496 14 133.656 17.12H147.296C146.656 13.72 144.136 11.76 140.576 11.76ZM155.799 30V8.4H160.039V12.16C160.959 9.44 163.159 8.08 165.919 8.08C167.399 8.08 168.719 8.4 169.559 8.92L167.879 13.08C167.279 12.68 166.399 12.44 165.159 12.44C162.079 12.44 160.119 13.96 160.119 17.84V30H155.799ZM172.949 30V8.4H177.229V10.88C178.549 9.08 180.589 7.96 183.349 7.96C186.789 7.96 189.069 9.4 190.229 11.76C191.589 9.48 194.069 7.96 197.269 7.96C203.189 7.96 205.949 11.52 205.949 17.08V30H201.509V17.32C201.509 13.96 200.029 11.76 196.629 11.76C193.549 11.76 191.549 13.76 191.549 17.72V30H187.189V17.04C187.189 13.76 185.709 11.76 182.429 11.76C179.229 11.76 177.269 13.84 177.269 17.92V30H172.949ZM221.519 30.44C214.639 30.44 210.039 25.56 210.039 19.28C210.039 12.92 214.919 7.96 221.279 7.96C227.639 7.96 232.359 12.6 232.359 19V20.8H214.199C214.839 24.28 217.559 26.6 221.519 26.6C224.559 26.6 226.559 25.2 227.839 23.12L231.399 25.24C229.319 28.36 226.199 30.44 221.519 30.44ZM221.279 11.76C217.839 11.76 215.199 14 214.359 17.12H227.999C227.359 13.72 224.839 11.76 221.279 11.76ZM244.342 30.44C239.783 30.44 236.663 28.8 234.823 25.68L238.703 23.48C240.023 25.52 241.863 26.68 244.543 26.68C247.343 26.68 248.823 25.28 248.823 23.64C248.823 21.76 246.183 21.32 243.343 20.72C239.703 19.96 235.823 18.76 235.823 14.36C235.823 11 239.062 7.88 244.143 7.92C248.183 7.92 250.943 9.4 252.823 11.96L249.103 14.08C248.023 12.48 246.463 11.52 244.143 11.52C241.503 11.52 240.223 12.76 240.223 14.28C240.223 16 242.183 16.4 245.463 17.12C249.063 17.88 253.143 19.12 253.143 23.6C253.143 26.76 250.303 30.48 244.342 30.44Z" fill="currentColor"/>
</svg>
