<svg xmlns="http://www.w3.org/2000/svg" viewBox="0 0 35 35"><circle cx="17.5" cy="17.5" r="17.5" fill="#090909"/><path d="M25.5 10.2c-.8-.4-2 .3-2.7 1.5L21.5 14c-.5 1-.4 2.1.2 3v.1c.6.9 1.4 1.7 1.7 2 .6.6.5 1.6-.1 2.1-.2.2-.4.3-.6.4-.8.2-1.6-.2-1.9-1-.1-.2-.1-.4 0-.6 0-.3-.1-.9-.5-1.4-.5-.5-1.4.5-1.8 1.5v.1c-.3 1-.5 1.9-.5 2 0 .1.1.1.1.2.4.8.1 1.9-.7 2.3-.8.4-1.9.1-2.3-.7-.4-.8-.1-1.9.7-2.3l.1-.1c.1 0 .2-.5.4-1l.3-.9v-.2l.8-3-.9 1.8c0-.3-.1-.3-.5 0-.2.2-.6.5-.8.6-.3.3-.6.7-.8 1-.1.2-.2.3-.4.5-.6.5-1.6.4-2.1-.2-.5-.6-.4-1.6.2-2.1l.6-.3c.4-.1 1.7-.9 2.4-1.4.1-.1.3-.2.4-.3l2.1-1.6-1.8 1h-.4c-.7.1-1.3.2-1.5.3l-.3.3c-.6.4-1.4.3-1.9-.3-.4-.6-.3-1.4.3-1.9.2-.2.5-.3.8-.3.5 0 1.8.3 2.8.1h.3c1.1-.2 2.3-1.1 2.8-2.1L20 9.7c.6-1.1.6-2.2-.1-2.6l-1.2-.7C18 6 17 6 16.4 6.3L8.1 11c-.6.3-1.1 1.2-1.1 1.9v9.2c0 .7.5 1.6 1.1 1.9l8.3 4.7c.6.3 1.6.3 2.2 0l8.3-4.7c.6-.3 1.1-1.2 1.1-1.9v-9.2c0-.7-.5-1.6-1.1-1.9l-1.4-.8" fill="#fff"/></svg>