<svg xmlns="http://www.w3.org/2000/svg" viewBox="0 0 35 35"><path d="M17.5 0C7.8 0 0 7.8 0 17.5S7.8 35 17.5 35 35 27.2 35 17.5 27.2 0 17.5 0zM28 22.1c0 .7-.5 1.6-1.1 1.9l-8.3 4.7c-.6.3-1.6.3-2.2 0L8.1 24c-.6-.3-1.1-1.2-1.1-1.9v-9.2c0-.7.5-1.6 1.1-1.9l8.3-4.7c.6-.3 1.6-.3 2.3.1l1.2.7c.7.4.7 1.5.1 2.6l-1.3 1.9c-.5 1-1.7 1.9-2.8 2.1h-.3c-1 .2-2.3-.1-2.8-.1-.3 0-.6.1-.8.3-.6.5-.7 1.3-.3 1.9.5.6 1.3.7 1.9.3l.3-.3c.2-.1.8-.2 1.5-.3h.4l1.8-1-2.1 1.6c-.1.1-.3.2-.4.3-.7.5-2 1.3-2.4 1.4l-.6.3c-.6.5-.7 1.5-.2 2.1.5.6 1.5.7 2.1.2.2-.2.3-.3.4-.5.2-.3.5-.7.8-1 .2-.1.6-.4.8-.6.4-.3.5-.3.5 0l.9-1.8-.8 3v.2l-.3.9c-.2.5-.3 1-.4 1l-.1.1c-.8.4-1.1 1.5-.7 2.3.4.8 1.5 1.1 2.3.7.8-.4 1.1-1.5.7-2.3 0-.1-.1-.1-.1-.2s.2-1 .5-2v-.1c.4-1 1.3-2 1.8-1.5.4.5.5 1.1.5 1.4-.1.2-.1.4 0 .6.3.8 1.1 1.2 1.9 1 .2-.1.4-.2.6-.4.6-.5.7-1.5.1-2.1-.3-.3-1.1-1.1-1.7-2V17c-.6-.9-.7-2-.2-3l1.3-2.3c.7-1.2 1.9-1.9 2.7-1.5l1.4.8c.6.3 1.1 1.2 1.1 1.9v9.2z" fill="#090909"/></svg>