<svg xmlns="http://www.w3.org/2000/svg" width="35" height="35" viewBox="0 0 35 35"><path fill="currentColor" d="M8.6 16v3l2.3-1.5zM16.6 13.7V9.4l-7.3 4.8 3.3 2.2zM25.7 14.2l-7.3-4.8v4.3l4 2.7zM9.3 20.8l7.3 4.8v-4.3l-4-2.7zM18.4 21.3v4.3l7.3-4.8-3.3-2.2zM17.5 15.3l-3.3 2.2 3.3 2.2 3.3-2.2z"/><path fill="currentColor" d="M17.5.1C7.9.1.1 7.9.1 17.5c0 9.6 7.8 17.4 17.4 17.4 9.6 0 17.4-7.8 17.4-17.4C34.9 7.9 27.1.1 17.5.1zm10.8 20.7v.5h-.1L18 28.1c-.2.1-.3.2-.5.2s-.4-.1-.5-.2l-9.8-6.6h-.1v-.1-.1-.1-.1V14.4v-.1-.1-.1-.1-.1h.1l9.8-7c.3-.2.7-.2 1 0l9.8 6.6h.1v7.3z"/><path fill="currentColor" d="M26.4 19v-3l-2.3 1.5z"/></svg>