<svg xmlns="http://www.w3.org/2000/svg" width="700" height="1150" fill="none"><mask id="a" fill="#fff"><path fill-rule="evenodd" d="M529.059 75H625v1000h-95.941c0-259.916-31.347-428.98-178.109-428.98S172.841 815.084 172.841 1075H75V75h97.841c0 259.126 31.347 428.98 178.109 428.98 139.162 0 178.109-169.064 178.109-428.98Z" clip-rule="evenodd"/></mask><path fill="#333" d="M529.059 75h-8v-8h8v8ZM625 75v-8h8v8h-8Zm0 1000h8v8h-8v-8Zm-95.941 0v8h-8v-8h8Zm-356.218 0h8v8h-8v-8ZM75 1075v8h-8v-8h8ZM75 75h-8v-8h8v8Zm97.841 0v-8h8v8h-8Zm356.218-8H625v16h-95.941V67ZM633 75v1000h-16V75h16Zm-8 1008h-95.941v-16H625v16Zm-103.941-8c0-129.954-7.881-235.969-33.569-309.314-12.805-36.559-29.833-64.392-51.957-83.077-21.972-18.555-49.56-28.589-84.583-28.589v-16c38.358 0 69.724 11.099 94.906 32.365 25.03 21.138 43.357 51.816 56.734 90.012 26.676 76.166 34.469 184.641 34.469 314.603h-16ZM350.95 654.02c-35.023 0-62.611 10.034-84.583 28.589-22.124 18.684-39.152 46.518-51.957 83.077-25.688 73.345-33.569 179.36-33.569 309.314h-16c0-129.962 7.793-238.437 34.469-314.603 13.377-38.196 31.704-68.874 56.734-90.012 25.182-21.266 56.549-32.365 94.906-32.365v16ZM172.841 1083H75v-16h97.841v16ZM67 1075V75h16v1000H67ZM75 67h97.841v16H75V67Zm105.841 8c0 129.556 7.881 235.575 33.57 309.021 12.806 36.612 29.837 64.521 51.965 83.266 21.975 18.615 49.56 28.693 84.574 28.693v16c-38.367 0-69.736-11.154-94.916-32.484-25.025-21.2-43.349-51.95-56.725-90.192C172.634 313.041 164.841 204.57 164.841 75h16ZM350.95 495.98c33.016 0 59.66-9.969 81.331-28.551 21.831-18.719 39.11-46.611 52.389-83.2C511.293 310.877 521.059 204.837 521.059 75h16c0 130.079-9.707 238.529-37.349 314.688-13.852 38.167-32.403 68.785-57.014 89.888-24.771 21.24-55.181 32.404-91.746 32.404v-16Z" mask="url(#a)"/></svg>