<svg xmlns="http://www.w3.org/2000/svg" width="35" height="35" viewBox="0 0 35 35"><path fill-rule="evenodd" clip-rule="evenodd" fill="#FFF" d="M17.5 0C7.8 0 0 7.9 0 17.5c0 7.7 5 14.3 12 16.6.9.2 1.2-.4 1.2-.8v-3c-4.9 1.1-6-2.3-6-2.3-.8-2-1.9-2.6-1.9-2.6-1.6-1.1.1-1.1.1-1.1 1.8.1 2.7 1.8 2.7 1.8 1.6 2.7 4.1 1.9 5.1 1.5.2-1.1.6-1.9 1.1-2.3-3.9-.4-8-1.9-8-8.6 0-1.9.7-3.5 1.8-4.7-.1-.5-.7-2.3.2-4.7 0 0 1.5-.5 4.8 1.8 1.4-.4 2.9-.6 4.4-.6 1.5 0 3 .2 4.4.6 3.3-2.3 4.8-1.8 4.8-1.8 1 2.4.4 4.2.2 4.6 1.1 1.2 1.8 2.8 1.8 4.7 0 6.7-4.1 8.2-8 8.6.6.5 1.2 1.6 1.2 3.2v4.8c0 .5.3 1 1.2.8 6.9-2.3 12-8.9 12-16.6C35 7.9 27.2 0 17.5 0z"/></svg>