<svg xmlns="http://www.w3.org/2000/svg" width="317" height="349" viewBox="0 0 317 349"><path fill="#FFF" d="M257 0H60C26.863 0 0 26.863 0 60v229c0 33.137 26.863 60 60 60h197c33.137 0 60-26.863 60-60V60c0-33.137-26.864-60-60-60zM84.5 31h148c8.008 0 14.5 6.492 14.5 14.5S240.507 60 232.5 60h-148C76.492 60 70 53.508 70 45.5S76.492 31 84.5 31zM57 311.5c-12.703 0-23-10.298-23-23s10.297-23 23-23 23 10.298 23 23-10.297 23-23 23zm203 0c-12.702 0-23-10.298-23-23s10.298-23 23-23c12.703 0 23 10.298 23 23s-10.297 23-23 23zm23-106c0 13.807-11.193 25-25 25H59c-13.807 0-25-11.193-25-25v-90c0-13.807 11.193-25 25-25h199c13.807 0 25 11.193 25 25v90z"/></svg>