<svg xmlns="http://www.w3.org/2000/svg" width="165" height="18" viewBox="0 0 165 18"><g fill="#1D1D1D"><path d="M10.97 1.4c1.08.55 1.98 1.39 2.71 2.52l-2.02 1.82c-.47-1-1.05-1.72-1.75-2.17-.7-.44-1.64-.67-2.8-.67-1.15 0-2.04.23-2.68.69s-.95 1.05-.95 1.76c0 .67.31 1.2.92 1.59.62.39 1.72.73 3.3 1.01 1.48.27 2.66.6 3.54 1.01s1.51.92 1.91 1.52.6 1.36.6 2.26c0 .97-.27 1.82-.83 2.55-.55.73-1.32 1.3-2.31 1.69s-2.14.59-3.44.59c-3.35 0-5.72-1.12-7.1-3.35l1.88-1.88c.53 1 1.22 1.73 2.06 2.2.84.47 1.89.7 3.14.7 1.18 0 2.11-.2 2.79-.61s1.01-.99 1.01-1.74c0-.6-.3-1.08-.91-1.45-.61-.37-1.67-.69-3.19-.98-1.52-.28-2.73-.63-3.63-1.05s-1.54-.92-1.95-1.53C.86 7.26.66 6.51.66 5.63c0-.93.26-1.78.77-2.55S2.7 1.7 3.67 1.25C4.65.8 5.78.58 7.08.58c1.52 0 2.82.27 3.89.82zM26.66 13h-6.95l-1.58 4.33h-2.75L21.61.83h3.2l6.23 16.5h-2.82L26.66 13zm-.8-2.17l-1.9-5.3-.75-2.38h-.08l-.7 2.32-1.95 5.35h5.38zM50.83 17.33h-2.45V7.78l.17-4.55h-.02l-5.02 14.1h-2.23l-5.02-14.1h-.02l.2 4.55v9.55h-2.47V.83h3.97l3.33 9.55 1.15 3.92h.05l1.17-3.92 3.3-9.55h3.9v16.5zM77.38.83v16.5h-2.7v-7.2h-8.15v7.2h-2.67V.83h2.67v7h8.15v-7h2.7zM94.56 15.03v2.3h-12.3V.83h11.95v2.3h-9.28v4.75h7.25v2.25h-7.25v4.9h9.63zM104.36 10.73h-3.55v6.6h-2.65V.83h6.72c1.78 0 3.19.44 4.23 1.31 1.03.88 1.55 2.09 1.55 3.64 0 1.18-.3 2.17-.91 2.96s-1.47 1.35-2.59 1.69l4.47 6.9h-3.08l-4.19-6.6zm-3.55-2.23h3.85c1.08 0 1.89-.22 2.42-.66.53-.44.8-1.12.8-2.04s-.27-1.6-.8-2.04c-.53-.44-1.34-.66-2.42-.66h-3.85v5.4zM131.83 17.33h-2.45V7.78l.17-4.55h-.02l-5.03 14.1h-2.22l-5.03-14.1h-.03l.2 4.55v9.55h-2.47V.83h3.97l3.33 9.55 1.15 3.92h.05l1.17-3.92 3.3-9.55h3.9v16.5zM149.03 15.03v2.3h-12.3V.83h11.95v2.3h-9.28v4.75h7.25v2.25h-7.25v4.9h9.63zM162.14 1.4c1.07.55 1.98 1.39 2.71 2.52l-2.02 1.82c-.47-1-1.05-1.72-1.75-2.17-.7-.45-1.63-.67-2.8-.67-1.15 0-2.04.23-2.67.69s-.95 1.05-.95 1.76c0 .67.31 1.2.93 1.59.62.39 1.72.73 3.3 1.01 1.48.27 2.66.6 3.54 1.01s1.51.92 1.91 1.52c.4.61.6 1.36.6 2.26 0 .97-.28 1.82-.83 2.55-.55.73-1.32 1.3-2.31 1.69s-2.14.59-3.44.59c-3.35 0-5.72-1.12-7.1-3.35l1.88-1.88c.53 1 1.22 1.73 2.06 2.2.84.47 1.89.7 3.14.7 1.18 0 2.11-.2 2.79-.61s1.01-.99 1.01-1.74c0-.6-.3-1.08-.91-1.45s-1.67-.69-3.19-.98c-1.52-.28-2.72-.63-3.62-1.05-.9-.42-1.55-.93-1.96-1.55-.41-.62-.61-1.37-.61-2.25 0-.93.26-1.78.77-2.55s1.26-1.38 2.24-1.83c.98-.45 2.11-.67 3.41-.67 1.5.02 2.8.29 3.87.84z"/></g></svg>