<svg xmlns="http://www.w3.org/2000/svg" width="290.5" height="35" viewBox="0 0 290.5 35"><path d="M.5 28l5.6-3.6c2 2.5 4 3.7 7.2 3.7 2.5 0 4.5-1 4.5-3.8C17.8 18.7 2 22.6 2 10.4 2 4 6.9.4 12.9.4c4.8 0 8.4 2.2 11.2 6l-5.4 3.8c-1.6-2-3.3-3.4-6-3.4-2.3 0-3.6 1.5-3.6 3.7 0 5.4 15.8 1.3 15.8 13.6 0 7-5.5 10.3-12 10.3-5.3.1-9.3-2-12.4-6.4zM51 33.9l-2.5-6.3H36.3l-2.4 6.3h-7.3l13-33h6.2c10.4 26.5 13 33 13 33H51zm-4.5-12.4s-3.4-10.9-3.9-12.7h-.1c-.6 1.8-4.2 12.7-4.2 12.7h8.2zM86.6 12.2l-6.3 14.5h-4.7s-5.7-12.8-6.3-14.4h-.1v21.6h-7V.9h7.4c2.1 4.1 8.2 16.6 8.3 16.7L86.2.9h7.4v33h-7V12.2zM128.8 33.9V20.3h-10.4v13.6h-7.1V.9h7.1v12.9h10.4V.8h7.1v33h-7.1zM165.7 27.3l-.4 6.6h-22.7V.8h22.9l-.4 6.4h-15.4v6.7h13.7l-.5 6.3h-13.2v7.1h16zM189.3 33.9l-7.4-12.5H178v12.5h-7.1V.9h10.8c7 0 12.7 2.7 12.7 10.5 0 4.1-2.1 7.2-5.5 8.9l9 13.6h-8.6zM178 7v8.5h4.5c2.7 0 4.7-1.7 4.7-4 0-2.9-1.6-4.5-4.9-4.5H178zM226 12.2l-6.3 14.5H215s-5.7-12.8-6.3-14.4h-.1v21.6h-7V.9h7.4c2.1 4.1 8.2 16.6 8.3 16.7L225.6.9h7.4v33h-7V12.2zM262.8 27.3l-.4 6.6h-22.7V.8h22.9l-.4 6.4h-15.4v6.7h13.7l-.5 6.3h-13.2v7.1h16zM265.7 28l5.6-3.6c2 2.5 4 3.7 7.2 3.7 2.5 0 4.5-1 4.5-3.8 0-5.6-15.8-1.7-15.8-13.9 0-6.4 4.9-10 10.9-10 4.8 0 8.4 2.2 11.2 6l-5.4 3.8c-1.6-2-3.3-3.4-6-3.4-2.3 0-3.6 1.5-3.6 3.7 0 5.4 15.8 1.3 15.8 13.6 0 7-5.5 10.3-12 10.3-5.2.1-9.3-2-12.4-6.4z"/></svg>