<svg xmlns="http://www.w3.org/2000/svg" width="280.8" height="27.6" viewBox="1 1.6 280.8 27.6" enable-background="new 1 1.6 280.8 27.6"><path d="M22.1 4.3l-1.9 4.1c-3-1.8-5.9-2.5-8-2.5-2.7 0-4.4 1-4.4 2.8 0 6 14.7 2.8 14.7 12.6 0 4.9-4.3 7.9-10.3 7.9-4.3 0-8.3-1.8-11.2-4.3l2-4c2.8 2.6 6.3 4 9.2 4 3.2 0 5.1-1.2 5.1-3.3 0-6.1-14.7-2.7-14.7-12.4 0-4.7 4-7.6 9.9-7.6 3.6-.1 7.1 1 9.6 2.7zM33 22.8L30.4 29h-4.8L37.7 1.7h4.7L54.3 29h-4.9l-2.6-6.2H33zm6.9-16.2l-5.1 12.1H45L39.9 6.6zM84.1 29V8.6l-8.6 17.6h-3L63.8 8.6V29h-4.3V1.7H65l9 18.1 9-18.1h5.4V29h-4.3zm43.7 0V17.7h-14.5V29h-4.6V1.7h4.6v11.9h14.5V1.7h4.6V29h-4.6zm18-23.2v7.4h13.3v4.1h-13.3v7.5h15.4V29h-20V1.7h19.5v4.1h-14.9zm34.8 14.9h-7.7V29h-4.6V1.7h11.1c7 0 11 3.4 11 9.3 0 4.4-2 7.4-5.7 8.9l6.1 9.1h-5.2l-5-8.3zm-1.2-4.1c4.2 0 6.6-1.8 6.6-5.5 0-3.6-2.4-5.3-6.6-5.3h-6.5v10.8h6.5zM222.7 29V8.6L214 26.2h-3l-8.6-17.6V29h-4.3V1.7h5.5l9 18.1 9-18.1h5.4V29h-4.3zm17.6-23.2v7.4h13.3v4.1h-13.3v7.5h15.4V29h-20V1.7h19.5v4.1h-14.9zm41.1-1.5l-1.9 4.1c-3-1.8-5.9-2.5-8-2.5-2.7 0-4.4 1-4.4 2.8 0 6 14.7 2.8 14.7 12.6 0 4.9-4.3 7.9-10.3 7.9-4.3 0-8.3-1.8-11.2-4.3l2-4c2.8 2.6 6.3 4 9.2 4 3.2 0 5.1-1.2 5.1-3.3 0-6.1-14.7-2.7-14.7-12.4 0-4.7 4-7.6 9.9-7.6 3.6-.1 7 1 9.6 2.7z"/></svg>