<svg xmlns="http://www.w3.org/2000/svg" width="202.7" height="26.2" viewBox="5.1 0.3 202.7 26.2" enable-background="new 5.1 0.3 202.7 26.2"><g fill="#333"><path d="M18.1 19.8c0-.9-.3-1.7-.9-2.2-.6-.6-1.3-1.1-2.2-1.6s-1.8-.9-2.9-1.3c-1-.4-2-1-2.9-1.6-.9-.6-1.6-1.4-2.2-2.3-.6-.9-.9-2-.9-3.4 0-.7.1-1.4.4-2.1.3-.7.7-1.4 1.3-2.1.7-.7 1.5-1.2 2.4-1.6 1-.4 2.2-.6 3.6-.6 1.9 0 3.5.4 4.7 1.2 1.3.8 2.2 2.1 2.7 4l-3 1.1c-.4-1.1-1-2-1.8-2.6-.8-.6-1.8-1-3.1-1-1.2 0-2.1.3-2.8.9-.6.6-1 1.4-1 2.5 0 .9.3 1.7.9 2.3.6.6 1.3 1.1 2.2 1.6.9.5 1.8.9 2.9 1.3 1 .4 2 .9 2.9 1.5.9.6 1.6 1.3 2.2 2.1s.9 1.9.9 3.1c0 .7-.1 1.4-.4 2.2-.3.8-.7 1.5-1.3 2.2-.6.7-1.4 1.2-2.4 1.6-1 .4-2.3.6-3.8.6-2 0-3.7-.5-5-1.5s-2.3-2.6-2.9-4.8l2.9-1.1c.8 3.2 2.6 4.7 5.3 4.7 1.3 0 2.3-.3 3.1-1 .7-.4 1.1-1.2 1.1-2.1zM42.4 25.3h-3.2l-1.9-6.5h-8.7l-1.8 6.5h-3.2l6.8-23.8h5.2l6.8 23.8zm-12.9-9.1h7.1L33 3.6l-3.5 12.6zM64.1 5.6l-6 16.3h-2.5l-6-16.3v19.7h-3.3V1.5H51l5.9 16.1 5.9-16.1h4.6v23.8h-3.3V5.6zM99.8 25.3h-3.3V14.7h-10v10.6h-3.3V1.5h3.3v10.6h10V1.5h3.3v23.8zM119.9 4.2h-10v7.9h9v2.7h-9v7.9h10v2.7h-13.3V1.5h13.3v2.7zM134.5 17.1c-.3-.6-.6-1-.9-1.2-.3-.2-.7-.3-1.2-.3h-3.6v9.7h-3.3V1.5h6.9c1.4 0 2.5.2 3.6.6 1 .4 1.9.9 2.5 1.5.7.6 1.2 1.4 1.5 2.3.3.9.5 1.8.5 2.8 0 1.5-.3 2.8-1 3.8-.7 1.1-1.7 1.9-3.1 2.4.3.2.6.5.8.8.2.3.4.6.5.8l4.3 8.8h-3.6l-3.9-8.2zm-5.7-12.9V13h3.6c1 0 1.8-.1 2.4-.4.6-.3 1.1-.6 1.5-1s.6-.9.8-1.4c.2-.5.2-1.1.2-1.6s-.1-1-.2-1.6c-.2-.5-.4-1-.8-1.4s-.9-.8-1.5-1c-.6-.3-1.4-.4-2.4-.4h-3.6zM164 5.6l-6 16.3h-2.5l-6-16.3v19.7h-3.3V1.5h4.6l5.9 16.1 5.9-16.1h4.6v23.8H164V5.6zM187.4 4.2h-10v7.9h9v2.7h-9v7.9h10v2.7h-13.3V1.5h13.3v2.7zM203.8 19.8c0-.9-.3-1.7-.9-2.2-.6-.6-1.3-1.1-2.2-1.6-.9-.5-1.8-.9-2.9-1.3-1-.4-2-1-2.9-1.6-.9-.6-1.6-1.4-2.2-2.3-.6-.9-.9-2-.9-3.4 0-.7.1-1.4.4-2.1.3-.7.7-1.4 1.3-2.1s1.4-1.2 2.3-1.6c1-.4 2.2-.6 3.6-.6 1.9 0 3.5.4 4.7 1.2 1.3.8 2.2 2.1 2.7 4l-3 1.1c-.4-1.1-1-2-1.8-2.6-.8-.6-1.8-1-3.1-1-1.2 0-2.1.3-2.8.9-.7.6-1.1 1.5-1.1 2.6 0 .9.3 1.7.9 2.3.6.6 1.3 1.1 2.2 1.6.9.5 1.8.9 2.9 1.3 1 .4 2 .9 2.9 1.5.9.6 1.6 1.3 2.2 2.1s.9 1.9.9 3.1c0 .7-.1 1.4-.4 2.2-.3.8-.7 1.5-1.3 2.2-.6.7-1.4 1.2-2.4 1.6-1 .4-2.3.6-3.8.6-2 0-3.7-.5-5-1.5s-2.3-2.6-2.9-4.8l2.9-1.1c.8 3.2 2.6 4.7 5.3 4.7 1.3 0 2.3-.3 3.1-1 .9-.5 1.3-1.3 1.3-2.2z"/></g></svg>