<svg xmlns="http://www.w3.org/2000/svg" width="186.2" height="18" viewBox="0 0 186.2 18"><path d="M10.535 1.077c1.023.312 1.934.734 2.73 1.266L12.093 4.84c-.867-.532-1.732-.927-2.596-1.185S7.86 3.27 7.172 3.27c-.852 0-1.52.15-2.004.456s-.727.738-.727 1.3c0 .492.16.906.476 1.242s.715.605 1.195.81 1.155.43 2.022.68c1.133.335 2.057.667 2.77.995s1.325.816 1.83 1.465.755 1.492.755 2.53c0 .978-.27 1.835-.81 2.573s-1.286 1.308-2.243 1.706-2.053.598-3.287.598c-1.28 0-2.52-.24-3.72-.72s-2.25-1.128-3.147-1.94l1.23-2.45c.852.782 1.783 1.386 2.795 1.812s1.975.64 2.89.64c.99 0 1.763-.18 2.313-.54s.826-.86.826-1.5c0-.516-.164-.94-.492-1.277s-.736-.6-1.225-.792-1.162-.416-2.02-.674c-1.148-.337-2.072-.665-2.77-.986s-1.302-.79-1.806-1.412-.755-1.45-.755-2.49c0-.945.256-1.77.768-2.48s1.23-1.25 2.15-1.634S6.17.608 7.383.608c1.078 0 2.13.157 3.152.47zM21.42 13.733l-1.606 3.797H16.86L24.28.725h2.905L34.52 17.53H31.5l-1.605-3.797H21.42zm4.23-9.984l-3.176 7.464h6.34L25.65 3.75zM54.3 17.53l-.024-12.55-5.31 10.792h-1.85L41.818 4.98v12.55h-2.673V.726h3.363l5.543 11.168L53.573.726h3.34V17.53H54.3zM84.073 17.53v-6.96h-8.906v6.96H72.33V.726h2.837v7.3h8.906v-7.3h2.835V17.53h-2.835zM96.54 3.27v4.546h8.202v2.543H96.54v4.628h9.456v2.543H93.703V.727h12V3.27H96.54zM119.435 12.444c-.156.016-.414.023-.773.023h-3.984v5.062h-2.836V.725h6.82c2.14 0 3.805.5 4.992 1.5s1.78 2.414 1.78 4.242c0 1.344-.3 2.48-.9 3.404s-1.462 1.607-2.58 2.045l3.763 5.613h-3.21l-3.072-5.086zm2.25-3.375c.703-.57 1.055-1.415 1.055-2.532 0-1.086-.352-1.902-1.055-2.45s-1.71-.82-3.023-.82h-3.984v6.657h3.984c1.312 0 2.32-.285 3.023-.856zM146.737 17.53l-.023-12.55-5.31 10.792h-1.85L134.255 4.98v12.55h-2.672V.726h3.363l5.543 11.168L146.01.726h3.34V17.53h-2.613zM159.016 3.27v4.546h8.203v2.543h-8.204v4.628h9.457v2.543H156.18V.727h12V3.27h-9.164zM182.99 1.077c1.023.312 1.934.734 2.73 1.266l-1.172 2.496c-.867-.532-1.732-.927-2.596-1.185s-1.64-.387-2.326-.387c-.852 0-1.52.152-2.004.457s-.727.738-.727 1.3c0 .493.158.907.475 1.243s.715.605 1.195.81 1.154.43 2.02.68c1.134.335 2.058.667 2.772.995s1.324.816 1.828 1.465.756 1.492.756 2.53c0 .978-.27 1.835-.808 2.573s-1.287 1.308-2.244 1.706-2.053.598-3.287.598c-1.28 0-2.52-.24-3.72-.72s-2.248-1.128-3.146-1.94l1.23-2.45c.852.782 1.783 1.386 2.795 1.812s1.974.64 2.888.64c.992 0 1.764-.18 2.314-.54s.826-.86.826-1.5c0-.516-.164-.94-.492-1.277s-.736-.6-1.225-.792-1.16-.416-2.02-.674c-1.148-.336-2.072-.664-2.77-.984s-1.302-.79-1.806-1.412-.756-1.45-.756-2.49c0-.945.256-1.77.768-2.48s1.23-1.25 2.15-1.634 1.988-.574 3.2-.574c1.08-.002 2.13.155 3.154.467z"/></svg>