<svg xmlns="http://www.w3.org/2000/svg" width="494.77" height="59.52" viewBox="0 0 494.77 59.52"><g fill="#1E1E1E"><path d="M.63 47.55l9.72-7.74c3.79 6 8.93 9.08 15.8 9.08 6.24 0 9.48-3 9.48-7.19 0-5.37-5.53-6.48-13.51-8.29-8.61-1.82-18.25-4.58-18.25-16.27C3.87 7.66 12.32.08 24.33.08c10.19 0 16.59 3.55 22.43 10.03l-9.08 7.11c-3-4.42-6.87-7.19-13.51-7.19-6.24 0-8.93 3.08-8.93 6.87 0 4.66 5.77 5.53 12.96 7.19 8.85 1.9 19.04 4.74 19.04 17.22 0 9.87-8.29 18.09-21.17 18.09-12.4 0-19.99-4.9-25.44-11.85zM53.17 46.76c0-8.85 7.35-14.3 19.2-14.3h11.22v-.56c0-4.58-3.08-7.74-9.24-7.74-4.82 0-8.06 2.05-10.03 5.61L54.27 24.8c4.34-5.69 10.59-9.72 20.14-9.72 12.56 0 19.75 6.56 19.75 17.3v26.23h-10.5v-6.56c-3.08 4.42-8.93 7.43-15.64 7.43-9.32-.01-14.85-5.22-14.85-12.72zm30.49-4.03v-2.29H73.63c-6.48 0-9.08 2.05-9.08 5.37 0 3.08 2.13 4.66 6.64 4.66 5.2 0 10.33-3.16 12.47-7.74zM102.54 15.95h10.9V21c2.61-3.71 6.71-5.92 11.85-5.92 6.4 0 10.74 2.61 13.03 7.19 2.69-4.42 7.5-7.19 13.35-7.19 10.82 0 16.27 6.64 16.27 17.3v26.23h-11.22V33.96c0-5.77-2.37-9.32-7.9-9.32-4.9 0-8.14 3.32-8.14 10.03v23.94h-11.14V33.64c0-5.69-2.37-9.01-7.66-9.01-5.13 0-8.37 3.4-8.37 10.27v23.7h-10.98V15.95zM230.12 35.06h-23.3V58.6H195.6V.94h11.22v23.22h23.3V.94h11.14v57.67h-11.14V35.06zM248.53 37.36c0-12.4 9.64-22.28 22.36-22.28 12.8 0 22.04 9.24 22.04 21.88v4.11h-33.89c1.42 5.53 5.92 9.01 12.24 9.01 5.05 0 8.45-2.21 10.59-5.69l8.93 5.21c-4.27 6-10.27 9.87-19.67 9.87-13.75 0-22.6-9.71-22.6-22.11zm10.82-4.82h22.75c-1.42-5.29-5.53-8.22-11.22-8.22-5.52 0-9.79 3.24-11.53 8.22zM300.04 15.95h10.74v6.56c2.05-5.06 6.32-7.35 11.77-7.35 2.84 0 5.37.71 7.19 1.66l-3.95 10.74c-1.19-.87-3.24-1.5-5.69-1.5-5.61 0-9.24 2.84-9.24 10.03V58.6h-10.82V15.95zM335.35 15.95h10.9V21c2.61-3.71 6.71-5.92 11.85-5.92 6.4 0 10.74 2.61 13.04 7.19 2.69-4.42 7.5-7.19 13.35-7.19 10.82 0 16.27 6.64 16.27 17.3v26.23h-11.22V33.96c0-5.77-2.37-9.32-7.9-9.32-4.9 0-8.14 3.32-8.14 10.03v23.94h-11.14V33.64c0-5.69-2.37-9.01-7.66-9.01-5.13 0-8.37 3.4-8.37 10.27v23.7h-10.98V15.95zM407.79 37.36c0-12.4 9.64-22.28 22.36-22.28 12.8 0 22.04 9.24 22.04 21.88v4.11H418.3c1.42 5.53 5.93 9.01 12.24 9.01 5.06 0 8.45-2.21 10.59-5.69l8.93 5.21c-4.27 6-10.27 9.87-19.67 9.87-13.75 0-22.6-9.71-22.6-22.11zm10.83-4.82h22.75c-1.42-5.29-5.53-8.22-11.22-8.22-5.53 0-9.8 3.24-11.53 8.22zM456.46 48.89l10.51-4.11c1.89 3.79 5.29 5.77 9.79 5.77 4.42 0 6.79-2.13 6.79-4.66 0-3.08-4.58-3.79-10.03-4.9-7.19-1.5-15.17-3.71-15.17-12.72 0-7.19 6.95-13.43 17.46-13.35 9.01 0 14.38 3.4 18.33 9.08l-9.95 4.03c-1.74-2.84-4.42-4.5-8.38-4.5-4.27 0-6.32 1.74-6.32 4.11 0 2.69 3.47 3.4 9.72 4.74 7.11 1.42 15.48 3.87 15.48 13.03 0 6.64-5.93 14.14-18.33 14.06-10.11 0-16.51-3.79-19.9-10.58z"/></g></svg>