<svg xmlns="http://www.w3.org/2000/svg" width="35" height="35" viewBox="0 0 35 35"><path fill="#FFF" d="M11 31.7c13.2 0 20.4-11 20.4-20.4v-.9c1.4-1 2.6-2.3 3.6-3.7-1.3.6-2.7 1-4.1 1.1 1.5-.9 2.6-2.3 3.2-4-1.4.8-2.9 1.4-4.6 1.7-1.3-1.4-3.2-2.3-5.2-2.3-4 0-7.2 3.2-7.2 7.2 0 .6.1 1.1.2 1.6-6-.2-11.3-3.1-14.8-7.4-.6 1.1-1 2.3-1 3.6 0 2.5 1.3 4.7 3.2 6-1.2 0-2.3-.4-3.2-.9v.1c0 3.5 2.5 6.4 5.8 7-.6.2-1.2.3-1.9.3-.5 0-.9 0-1.3-.1.9 2.9 3.6 4.9 6.7 5-2.5 1.9-5.6 3.1-8.9 3.1-.6 0-1.1 0-1.7-.1 3 1.9 6.8 3.1 10.8 3.1"/></svg>